<svg width="508" height="498" viewBox="0 0 508 498" fill="none" xmlns="http://www.w3.org/2000/svg">
<g clip-path="url(#clip0_4326_10634)">
<path d="M167.959 492.809C252.916 492.809 321.787 489.135 321.787 484.603C321.787 480.071 252.916 476.397 167.959 476.397C83.0013 476.397 14.1299 480.071 14.1299 484.603C14.1299 489.135 83.0013 492.809 167.959 492.809Z" fill="#263238" stroke="#263238" stroke-width="2.81017" stroke-linecap="round" stroke-linejoin="round"/>
<path d="M1.40527 450.06H506.595" stroke="#263238" stroke-width="2.81017" stroke-linecap="round" stroke-linejoin="round"/>
<path d="M428.73 324.434C428.73 324.434 431.012 314.217 429.933 306.011C428.551 295.433 427.28 287.351 436.97 284.035C448.278 280.169 443.726 272.356 451.358 269.569C464.746 264.668 472.423 259.879 474.851 263.544C476.413 265.893 473.289 265.511 471.276 274.998C469.186 284.878 475.278 289.847 462.531 295.299C456.461 297.895 460.587 305.539 453.179 313.194C447.817 318.735 444.85 314.498 437.79 318.432C434.317 320.365 428.742 324.434 428.742 324.434H428.73Z" fill="#9ABAE3" stroke="#263238" stroke-width="2.81017" stroke-linecap="round" stroke-linejoin="round"/>
<path d="M474.852 263.544C466.837 269.231 438.488 287.351 428.731 325.727C421.773 353.087 422.335 381.683 425.483 392.092" stroke="#263238" stroke-width="2.81017" stroke-linecap="round" stroke-linejoin="round"/>
<path d="M436.971 304.179L459.576 297.839" stroke="#263238" stroke-width="2.81017" stroke-linecap="round" stroke-linejoin="round"/>
<path d="M446.851 273.525L443.097 294.04" stroke="#263238" stroke-width="2.81017" stroke-linecap="round" stroke-linejoin="round"/>
<path d="M415.254 368.104C415.254 368.104 419.728 354.042 418.39 345.882C417.536 340.677 414.523 340.183 409.589 332.325C403.238 322.209 408.734 314.666 400.967 312.249C389.94 308.832 376.271 296.793 373.529 300.233C371.764 302.436 377.114 306.022 378.272 315.644C379.486 325.671 378.621 322.006 379.801 327.705C381.15 334.169 384.601 331.662 391.3 339.958C396.145 345.96 387.411 353.525 403.024 362.282C406.486 364.226 415.243 368.104 415.243 368.104H415.254Z" fill="#9ABAE3" stroke="#263238" stroke-width="2.81017" stroke-linecap="round" stroke-linejoin="round"/>
<path d="M373.518 300.244C381.768 306.573 398.315 321.062 408.577 345.646C416.626 364.923 417.356 382.166 417.03 392.103" stroke="#263238" stroke-width="2.81017" stroke-linecap="round" stroke-linejoin="round"/>
<path d="M380.644 330.268L401.158 331.033" stroke="#263238" stroke-width="2.81017" stroke-linecap="round" stroke-linejoin="round"/>
<path d="M414.467 338.879L411.174 352.48" stroke="#263238" stroke-width="2.81017" stroke-linecap="round" stroke-linejoin="round"/>
<path d="M435.139 377.951C435.139 377.951 430.092 368.599 432.16 360.585C433.475 355.481 436.892 353.211 442.501 345.826C449.729 336.305 445.862 330.707 452.865 326.593C464.713 319.646 478.831 313.385 481.259 317.061C482.822 319.41 477.179 322.512 475.167 332C473.076 341.88 477.763 345.308 474.616 351.356C471.57 357.212 467.073 354.2 459.666 361.866C454.304 367.408 455.72 370.87 448.661 374.793C445.188 376.726 435.139 377.951 435.139 377.951Z" fill="#9ABAE3" stroke="#263238" stroke-width="2.81017" stroke-linecap="round" stroke-linejoin="round"/>
<path d="M433.925 392.104C433.925 392.104 429.754 384.572 442.378 360.461C457.665 331.247 481.259 317.061 481.259 317.061" stroke="#263238" stroke-width="2.81017" stroke-linecap="round" stroke-linejoin="round"/>
<path d="M451.134 327.818L451.999 343.533L473.458 340.812" stroke="#263238" stroke-width="2.81017" stroke-linecap="round" stroke-linejoin="round"/>
<path d="M438.309 350.996L440.298 364.598L461.127 360.461" stroke="#263238" stroke-width="2.81017" stroke-linecap="round" stroke-linejoin="round"/>
<path d="M450.278 392.103H413.791H388.792L399.527 460.188H413.791H450.278H464.543L475.267 392.103H450.278Z" fill="white" stroke="#263238" stroke-width="2.81017" stroke-linecap="round" stroke-linejoin="round"/>
<path d="M481.528 392.103H381.868V403.276H481.528V392.103Z" fill="white" stroke="#263238" stroke-width="2.81017" stroke-linecap="round" stroke-linejoin="round"/>
<path d="M302.296 10.1901V50.0271C301.206 52.6349 298.328 54.4896 294.956 54.4896H285.199L285.143 67.8885C285.368 69.3161 283.558 70.3165 282.164 69.5296L264.561 54.5008H248.532C244.227 54.5008 240.72 51.4659 240.72 47.7452V12.4832C240.72 8.74004 244.216 5.72754 248.532 5.72754H294.956C298.339 5.72754 301.217 7.59349 302.296 10.1901Z" fill="white"/>
<path d="M282.164 69.5296L264.561 54.5008H248.532C244.227 54.5008 240.72 51.4659 240.72 47.7452V12.4832C240.72 8.74004 244.216 5.72754 248.532 5.72754H294.956C298.339 5.72754 301.217 7.59349 302.296 10.1901V50.0271C301.206 52.6349 298.328 54.4896 294.956 54.4896H285.199L285.143 67.8885C285.368 69.3161 283.558 70.3165 282.164 69.5296Z" stroke="#263238" stroke-width="2.81017" stroke-linecap="round" stroke-linejoin="round"/>
<path d="M284.312 30.3219C284.312 32.1991 285.829 33.7166 287.706 33.7166C289.583 33.7166 291.101 32.1991 291.101 30.3219C291.101 28.4447 289.583 26.9272 287.706 26.9272C285.829 26.9272 284.312 28.4447 284.312 30.3219Z" fill="#EC644E" stroke="#263238" stroke-width="2.81017" stroke-linecap="round" stroke-linejoin="round"/>
<path d="M267.799 30.3219C267.799 32.1991 269.316 33.7166 271.194 33.7166C273.071 33.7166 274.588 32.1991 274.588 30.3219C274.588 28.4447 273.071 26.9272 271.194 26.9272C269.316 26.9272 267.799 28.4447 267.799 30.3219Z" fill="#EC644E" stroke="#263238" stroke-width="2.81017" stroke-linecap="round" stroke-linejoin="round"/>
<path d="M251.286 30.3219C251.286 32.1991 252.804 33.7166 254.681 33.7166C256.558 33.7166 258.075 32.1991 258.075 30.3219C258.075 28.4447 256.558 26.9272 254.681 26.9272C252.804 26.9272 251.286 28.4447 251.286 30.3219Z" fill="#EC644E" stroke="#263238" stroke-width="2.81017" stroke-linecap="round" stroke-linejoin="round"/>
<path d="M161.888 89.2907V129.128C162.978 131.735 165.856 133.59 169.228 133.59H178.985L179.041 146.989C178.816 148.417 180.626 149.417 182.02 148.63L199.623 133.601H215.652C219.957 133.601 223.464 130.566 223.464 126.846V91.595C223.464 87.8519 219.968 84.8394 215.652 84.8394H169.228C165.844 84.8394 162.967 86.7053 161.888 89.3019V89.2907Z" fill="white"/>
<path d="M182.02 148.63L199.623 133.601H215.652C219.957 133.601 223.464 130.566 223.464 126.846V91.595C223.464 87.8519 219.968 84.8394 215.652 84.8394H169.228C165.844 84.8394 162.967 86.7053 161.888 89.3019V129.139C162.978 131.747 165.856 133.601 169.228 133.601H178.985L179.041 147C178.816 148.428 180.626 149.428 182.02 148.641V148.63Z" stroke="#263238" stroke-width="2.81017" stroke-linecap="round" stroke-linejoin="round"/>
<path d="M191.933 114.503C190.427 114.503 189.303 112.963 189.91 111.58V111.558C190.292 110.715 190.764 109.962 191.337 109.299C191.911 108.635 192.518 108.017 193.17 107.444C193.822 106.871 194.429 106.309 195.002 105.769C195.575 105.229 196.047 104.656 196.407 104.049C196.711 103.532 196.89 102.97 196.935 102.341C197.025 101.16 196.576 99.9464 195.688 99.1595C194.665 98.249 193.181 97.7994 191.248 97.7994C189.651 97.7994 188.224 98.0917 186.987 98.6874C186.313 99.0134 185.695 99.4068 185.144 99.8902C184.301 100.632 183.053 100.688 182.12 100.07C180.681 99.1258 180.546 97.0238 181.895 95.9559C182.671 95.3377 183.548 94.7981 184.503 94.3373C186.56 93.3593 188.966 92.8647 191.753 92.8647C193.99 92.8647 195.935 93.1907 197.599 93.8427C199.262 94.4946 200.555 95.4276 201.488 96.6529C202.421 97.8781 202.893 99.3506 202.893 101.07C202.893 102.341 202.713 103.42 202.353 104.308C201.994 105.196 201.51 105.983 200.926 106.657C200.341 107.332 199.701 107.972 199.026 108.557C198.352 109.141 197.711 109.726 197.126 110.299C196.542 110.872 196.059 111.502 195.676 112.176C195.53 112.435 195.418 112.705 195.328 112.986C195.047 113.885 194.215 114.503 193.282 114.503H191.944H191.933ZM192.259 125.317C191.236 125.317 190.382 124.968 189.696 124.271C189.022 123.574 188.673 122.742 188.673 121.776C188.673 120.809 189.011 119.989 189.696 119.303C190.371 118.628 191.225 118.28 192.259 118.28C193.35 118.28 194.226 118.617 194.89 119.303C195.553 119.977 195.89 120.809 195.89 121.776C195.89 122.742 195.564 123.574 194.89 124.271C194.226 124.968 193.35 125.317 192.259 125.317Z" fill="#EC644E" stroke="#263238" stroke-width="2.81017" stroke-linecap="round" stroke-linejoin="round"/>
<path d="M376.379 265.943C421.668 243.442 449.085 206.488 437.616 183.404C426.147 160.32 380.136 159.848 334.847 182.35C289.558 204.851 262.141 241.805 273.61 264.889C285.079 287.973 331.09 288.445 376.379 265.943Z" stroke="#9ABAE3" stroke-width="2.81017" stroke-linecap="round" stroke-linejoin="round"/>
<path d="M386.756 277.733C444.816 248.887 479.963 201.511 465.259 171.917C450.556 142.323 391.57 141.717 333.51 170.563C275.45 199.409 240.303 246.785 255.007 276.379C269.71 305.973 328.697 306.579 386.756 277.733Z" stroke="#9ABAE3" stroke-width="2.81017" stroke-linecap="round" stroke-linejoin="round"/>
<path d="M371.519 256.74C407.807 238.711 430.495 210.552 422.195 193.845C413.894 177.138 377.748 178.21 341.46 196.24C305.172 214.269 282.484 242.428 290.784 259.135C299.085 275.842 335.231 274.77 371.519 256.74Z" fill="#9ABAE3"/>
<path d="M275.105 121.068C269.934 125.227 264.089 126.565 262.066 124.047C260.043 121.529 262.594 116.111 267.776 111.952C272.958 107.793 278.792 106.455 280.815 108.973C282.839 111.491 280.287 116.909 275.105 121.068Z" fill="#EC644E" stroke="#263238" stroke-width="2.81017" stroke-linecap="round" stroke-linejoin="round"/>
<path d="M266.371 142.661L260.042 144.021C260.042 144.021 262.009 158.814 257.996 173.742C253.567 190.277 251.308 188.984 252.039 192.368L281.388 215.254C281.388 215.254 293.944 188.714 295.034 173.742C295.45 168.043 294.461 160.534 293.584 156.69C292.708 152.845 285.57 143.066 285.57 143.066L266.359 142.661H266.371Z" fill="#EC644E" stroke="#263238" stroke-width="2.81017" stroke-linecap="round" stroke-linejoin="round"/>
<path d="M263.673 231.935C276.555 231.935 286.997 221.492 286.997 208.61C286.997 195.729 276.555 185.286 263.673 185.286C250.791 185.286 240.349 195.729 240.349 208.61C240.349 221.492 250.791 231.935 263.673 231.935Z" fill="#EC644E" stroke="#263238" stroke-width="2.81017" stroke-linecap="round" stroke-linejoin="round"/>
<path d="M313.48 181.082L324.002 180.677L336.614 182.296L351.238 185.578C359.354 187.399 370.291 186.882 373.91 182.082L393.716 178.958C393.716 178.958 401.686 183.937 403.327 201.439C405.126 220.593 405.744 229.754 405.744 229.754L351.642 244.727L335.726 246.795L313.413 239.444L312.772 230.125C312.131 220.863 307.253 210.162 302.678 201.315C297.148 190.648 294.81 182.386 294.81 182.386L313.48 181.093V181.082Z" fill="#EC644E" stroke="#263238" stroke-width="2.81017" stroke-linecap="round" stroke-linejoin="round"/>
<path d="M288.156 168.211C304.011 168.211 316.865 155.358 316.865 139.503C316.865 123.647 304.011 110.794 288.156 110.794C272.301 110.794 259.447 123.647 259.447 139.503C259.447 155.358 272.301 168.211 288.156 168.211Z" fill="#EC644E"/>
<path d="M286.997 116.111C302.847 116.111 315.706 128.959 315.706 144.819C315.706 145.989 315.628 147.146 315.493 148.282C316.381 145.516 316.864 142.571 316.864 139.503C316.864 123.653 304.016 110.794 288.155 110.794C273.475 110.794 261.369 121.821 259.66 136.041C263.37 124.474 274.206 116.111 286.997 116.111Z" fill="white"/>
<path d="M375.047 182.083C372.832 181.948 370.539 188.467 351.835 185.623C341.459 184.05 331.006 179.958 320.035 180.689C318.169 180.824 307.569 181.588 297.003 182.341C294.046 182.555 291.214 181.801 288.831 180.318L288.819 180.306C285.919 178.519 283.727 175.63 282.873 172.112C281.232 165.446 280.423 155.791 283.368 143.358C284.728 137.603 296.07 113.098 299.397 112.165C299.475 112.143 299.577 112.121 299.667 112.087C301.836 111.401 304.028 110.704 306.096 110.063C309.142 109.086 311.941 108.209 313.998 107.568C314.279 107.478 314.56 107.377 314.819 107.298C315.089 107.208 315.347 107.118 315.595 107.051C315.628 107.051 315.662 107.028 315.707 107.017C315.864 106.972 316.011 106.927 316.157 106.871C316.988 106.601 317.494 106.433 317.494 106.433C317.494 106.433 329.87 102.24 336.941 103.51C345.472 105.039 372.866 110.255 377.463 110.772C392.548 114.942 381.521 119.112 378.644 140.897C375.743 162.816 407.375 156.679 375.024 182.071L375.047 182.083Z" fill="#EC644E"/>
<path d="M378.654 140.919C378.879 139.244 379.148 137.682 379.452 136.209C378.733 138.828 378.081 141.807 377.631 145.213C375.787 159.196 387.984 161.759 388.658 168.38C394.099 158.039 376.451 157.555 378.643 140.93L378.654 140.919Z" fill="white"/>
<path d="M298.373 116.459C298.452 116.437 298.553 116.414 298.643 116.381C300.812 115.695 303.004 114.998 305.073 114.357C308.119 113.379 310.918 112.491 312.975 111.862C313.256 111.772 313.537 111.671 313.795 111.592C314.065 111.502 314.324 111.412 314.571 111.345C314.605 111.345 314.638 111.322 314.683 111.311C314.841 111.266 314.987 111.221 315.133 111.165C315.965 110.895 316.471 110.727 316.471 110.727C316.471 110.727 328.847 106.534 335.917 107.804C344.449 109.333 371.842 114.549 376.44 115.066C382.352 116.695 384.241 118.337 384.196 121.034C386.174 115.493 385.994 113.132 377.462 110.772C372.854 110.255 345.472 105.039 336.94 103.51C329.858 102.24 317.493 106.433 317.493 106.433C317.493 106.433 316.988 106.601 316.156 106.871C316.01 106.916 315.864 106.961 315.706 107.017C315.661 107.028 315.628 107.051 315.594 107.051C315.347 107.118 315.088 107.208 314.818 107.298C314.56 107.377 314.279 107.478 313.998 107.568C311.941 108.209 309.142 109.086 306.095 110.063C304.027 110.715 301.835 111.401 299.666 112.087C299.576 112.121 299.475 112.143 299.396 112.165C296.08 113.098 284.738 137.592 283.367 143.358C283.131 144.348 282.928 145.325 282.737 146.281C285.165 138.772 295.259 117.325 298.362 116.459H298.373Z" fill="white"/>
<path d="M362.693 185.286C360.344 183.015 358.759 178.958 355.521 171.606C352.048 163.715 354.364 159.702 351.475 157.297C346.237 152.947 337.199 164.221 322.316 163.502C308.558 162.838 302.128 152.531 296.665 156.218C292.607 158.96 292.675 166.997 293.967 171.876C295.148 176.338 296.856 179.542 298.295 181.003" stroke="#9ABAE3" stroke-width="2.81017" stroke-linecap="round" stroke-linejoin="round"/>
<path d="M368.257 108.715C366.009 110.895 360.355 110.783 354.274 124.35C352.745 128.768 350.677 142.661 350.677 142.661C350.677 142.661 336.457 145.438 324.969 145.37C315.932 145.314 298.115 137.918 298.306 135.074C298.374 134.051 299.003 129.139 301.544 123.372C305.32 114.796 310.367 109.153 310.367 109.153C310.648 109.063 314.583 107.388 314.841 107.298C315.111 107.208 315.37 107.118 315.617 107.051C315.651 107.051 315.684 107.028 315.729 107.017C315.887 106.972 316.033 106.927 316.179 106.871C317.011 106.601 317.517 106.433 317.517 106.433C317.517 106.433 329.893 102.24 336.963 103.51C345.54 105.039 360.804 107.467 368.257 108.703V108.715Z" stroke="#263238" stroke-width="2.81017" stroke-linecap="round" stroke-linejoin="round"/>
<path d="M381.117 177.496C377.34 182.262 370.078 189.906 351.835 185.635C341.617 183.24 331.006 179.969 320.035 180.7C318.18 180.835 307.569 181.599 297.003 182.352C294.046 182.566 291.214 181.813 288.831 180.329H288.819C285.919 178.53 283.739 175.642 282.873 172.123C281.232 165.458 280.423 155.802 283.368 143.37C284.739 137.614 296.07 113.11 299.397 112.177C299.475 112.154 299.577 112.132 299.667 112.098C301.06 111.693 303.477 110.951 306.096 110.12C308.828 109.243 311.784 108.299 313.998 107.579C314.279 107.489 314.56 107.388 314.819 107.309C315.089 107.231 315.359 107.141 315.595 107.062C315.628 107.062 315.662 107.04 315.707 107.028C315.864 106.984 316.011 106.939 316.157 106.882C316.988 106.613 317.494 106.444 317.494 106.444C317.494 106.444 329.87 102.251 336.941 103.521C345.517 105.05 353.903 106.275 361.355 107.512C367.504 108.523 373.012 109.558 377.463 110.783C392.548 114.953 381.521 119.123 378.644 140.908C375.743 162.827 403.013 156.611 381.094 177.485L381.117 177.496Z" stroke="#263238" stroke-width="2.81017" stroke-linecap="round" stroke-linejoin="round"/>
<path d="M322.181 118.64C323.564 122.496 327.88 123.092 332.388 120.405C332.928 120.079 333.478 119.697 334.029 119.281C334.198 119.146 334.355 119.022 334.524 118.876C334.906 118.562 335.288 118.213 335.637 117.876C340.144 113.514 342.538 107.096 341.055 102.971C340.167 100.509 338.087 99.3624 335.535 99.5648C335.412 99.5648 335.288 99.5873 335.153 99.621C334.973 99.6435 334.793 99.6772 334.602 99.7109C332.748 100.059 330.702 101.071 328.69 102.735C323.474 107.074 320.552 114.189 322.159 118.651L322.181 118.64Z" fill="#263238" stroke="#263238" stroke-width="2.81017" stroke-linecap="round" stroke-linejoin="round"/>
<path d="M342.819 90.8198C342.965 91.6179 343.078 92.4722 343.156 93.304C343.179 93.6637 343.19 94.0346 343.201 94.3943C343.235 95.5859 343.201 96.7437 343.078 97.8677C341.987 107.231 335.367 114.504 326.767 114.931C316.808 115.448 308.041 106.557 307.13 95.125C306.782 90.7186 307.658 86.5933 309.423 83.1312C309.524 82.9401 309.637 82.7378 309.749 82.5579C309.828 82.4118 309.906 82.2657 309.996 82.1308C310.12 81.8835 310.255 81.6587 310.401 81.4338C311.503 79.7028 312.874 78.1853 314.425 76.96C314.65 76.7802 314.875 76.6116 315.1 76.4542C315.324 76.2969 315.572 76.1395 315.797 75.9821C316.044 75.836 316.291 75.6899 316.538 75.5437C318.18 74.6108 319.989 73.9588 321.912 73.6778C322.44 73.5878 322.991 73.5316 323.53 73.5092C332.714 73.0371 340.953 80.6245 342.83 90.8311L342.819 90.8198Z" fill="#EC644E"/>
<path d="M335.603 101.026C335.726 99.8906 335.76 98.744 335.726 97.5525C335.704 97.1928 335.704 96.8219 335.681 96.4622C335.614 95.6303 335.49 94.776 335.344 93.978C333.467 83.7714 325.239 76.184 316.044 76.6561C315.56 76.6786 315.077 76.7348 314.616 76.8022C314.774 76.6785 314.931 76.5549 315.088 76.4425C315.313 76.2851 315.56 76.1278 315.785 75.9704C316.033 75.8243 316.28 75.6781 316.527 75.532C318.168 74.599 319.978 73.9471 321.9 73.666C322.428 73.5761 322.979 73.5199 323.519 73.4974C332.702 73.0253 340.942 80.6128 342.819 90.8193C342.965 91.6174 343.078 92.4717 343.156 93.3035C343.179 93.6632 343.19 94.0342 343.201 94.3939C343.235 95.5854 343.201 96.7432 343.078 97.8672C342.043 106.714 336.075 113.694 328.161 114.784C332.174 111.716 334.928 106.759 335.591 101.026H335.603Z" fill="white"/>
<path d="M343.077 97.8786C343.021 98.362 342.931 98.8453 342.853 99.3287C341.279 107.973 334.905 114.526 326.767 114.931C319.551 115.313 312.952 110.749 309.524 103.859C308.231 101.228 307.377 98.2833 307.13 95.1247V95.0909C306.781 90.6958 307.647 86.593 309.412 83.1421C309.524 82.9398 309.625 82.7487 309.737 82.5576C309.805 82.4115 309.884 82.2766 309.974 82.1304C310.086 81.8944 310.232 81.6583 310.389 81.4335C311.469 79.7024 312.851 78.185 314.414 76.9597C314.627 76.7686 314.841 76.6113 315.088 76.4426C315.313 76.2853 315.549 76.1392 315.785 75.9705C316.032 75.8244 316.268 75.6895 316.527 75.5322C318.168 74.5879 319.989 73.9585 321.9 73.655C322.428 73.565 322.968 73.5088 323.53 73.4864C323.788 73.4864 324.047 73.4639 324.317 73.4639C324.575 73.4751 324.822 73.4639 325.092 73.4864C325.351 73.4976 325.609 73.5088 325.857 73.5313C326.362 73.5875 326.857 73.6437 327.34 73.7449C327.857 73.8461 328.375 73.9809 328.869 74.1046C329.195 74.2058 329.521 74.3182 329.836 74.4306C334.062 75.9593 337.727 79.1854 340.144 83.4344C341.391 85.615 342.313 88.0655 342.796 90.6846C342.808 90.7183 342.808 90.752 342.819 90.7858C342.987 91.5838 343.089 92.4381 343.156 93.2699C343.179 93.6296 343.19 94.0006 343.201 94.3603C343.235 95.5518 343.212 96.6984 343.089 97.8449L343.077 97.8786Z" stroke="#263238" stroke-width="2.81017" stroke-linecap="round" stroke-linejoin="round"/>
<path d="M340.132 99.5309C343.714 99.5309 346.618 95.7615 346.618 91.1116C346.618 86.4618 343.714 82.6924 340.132 82.6924C336.55 82.6924 333.646 86.4618 333.646 91.1116C333.646 95.7615 336.55 99.5309 340.132 99.5309Z" fill="#EC644E" stroke="#263238" stroke-width="2.81017" stroke-linecap="round" stroke-linejoin="round"/>
<path d="M339.762 91.1115C339.762 93.5844 341.302 95.5853 343.213 95.5853C345.123 95.5853 346.663 93.5844 346.663 91.1115C346.663 88.6385 345.123 86.6377 343.213 86.6377C341.302 86.6377 339.762 88.6385 339.762 91.1115Z" fill="#9ABAE3" stroke="#263238" stroke-width="2.81017" stroke-linecap="round" stroke-linejoin="round"/>
<path d="M325.352 158.151C332.407 157.93 337.946 152.031 337.725 144.976C337.503 137.921 331.604 132.381 324.549 132.603C317.494 132.824 311.954 138.723 312.176 145.778C312.398 152.834 318.297 158.373 325.352 158.151Z" fill="#EC644E" stroke="#263238" stroke-width="2.81017" stroke-linecap="round" stroke-linejoin="round"/>
<path d="M318.641 145.37C318.641 148.855 321.473 151.688 324.958 151.688C328.442 151.688 331.275 148.855 331.275 145.37C331.275 141.886 328.442 139.053 324.958 139.053C321.473 139.053 318.641 141.886 318.641 145.37Z" fill="#9ABAE3" stroke="#263238" stroke-width="2.81017" stroke-linecap="round" stroke-linejoin="round"/>
<path d="M314.616 88.245C314.616 90.8416 316.212 92.9548 318.179 92.9548C320.147 92.9548 321.743 90.8416 321.743 88.245C321.743 85.6484 320.147 83.5352 318.179 83.5352C316.212 83.5352 314.616 85.6484 314.616 88.245Z" fill="#9ABAE3" stroke="#263238" stroke-width="2.81017" stroke-linecap="round" stroke-linejoin="round"/>
<path d="M379.16 154.217L368.357 151.688C368.357 151.688 374.281 162.906 371.977 181.318C369.852 198.303 371.437 205.182 371.718 208.633L398.988 238.275C398.988 238.275 408.903 230.069 411.949 215.355C413.107 209.768 414.377 162.895 418.12 151.575C419.356 147.832 398.156 157.151 398.156 157.151L379.16 154.217Z" fill="#EC644E"/>
<path d="M374.596 155.217L393.592 158.151C393.592 158.151 394.761 157.634 396.526 156.903L379.148 154.228L368.346 151.699C368.346 151.699 368.762 152.508 369.335 153.992L374.596 155.229V155.217Z" fill="white"/>
<path d="M412.331 151.699C413.275 151.665 413.77 151.913 413.556 152.576C409.813 163.906 408.543 210.769 407.385 216.355C405.384 226.011 404.294 232.621 401.124 236.195L402.316 240.287C402.316 240.287 408.891 230.069 411.949 215.366C413.107 209.78 414.377 162.906 418.12 151.587C418.581 150.181 415.883 150.62 412.342 151.71L412.331 151.699Z" fill="white"/>
<path d="M379.16 154.217L368.357 151.688C368.357 151.688 374.281 162.906 371.977 181.318C369.852 198.303 371.437 205.182 371.718 208.633L398.988 238.275C398.988 238.275 408.903 230.069 411.949 215.355C413.107 209.768 414.377 162.895 418.12 151.575C419.356 147.832 398.156 157.151 398.156 157.151L379.16 154.217Z" stroke="#263238" stroke-width="2.81017" stroke-linecap="round" stroke-linejoin="round"/>
<path d="M404.35 169.628L401.787 198.494" stroke="#9ABAE3" stroke-width="2.81017" stroke-linecap="round" stroke-linejoin="round"/>
<path d="M394.852 169.628C410.708 169.628 423.561 156.774 423.561 140.919C423.561 125.064 410.708 112.21 394.852 112.21C378.997 112.21 366.144 125.064 366.144 140.919C366.144 156.774 378.997 169.628 394.852 169.628Z" fill="#EC644E"/>
<path d="M394.852 112.21C386.837 112.21 379.598 115.492 374.394 120.787C378.609 118.359 383.487 116.965 388.703 116.965C404.552 116.965 417.412 129.813 417.412 145.674C417.412 153.52 414.264 160.624 409.161 165.806C417.76 160.849 423.56 151.564 423.56 140.919C423.56 125.07 410.712 112.21 394.852 112.21Z" fill="white"/>
<path d="M390.356 113.57C390.356 113.57 386.118 118.91 388.006 128.936C389.906 139.019 395.526 144.179 395.526 144.179L403.395 138.929L415.085 151.092L421.223 144.797" stroke="#9ABAE3" stroke-width="2.81017" stroke-linecap="round" stroke-linejoin="round"/>
<path d="M394.852 169.628C410.708 169.628 423.561 156.774 423.561 140.919C423.561 125.064 410.708 112.21 394.852 112.21C378.997 112.21 366.144 125.064 366.144 140.919C366.144 156.774 378.997 169.628 394.852 169.628Z" stroke="#263238" stroke-width="2.81017" stroke-linecap="round" stroke-linejoin="round"/>
<path d="M405.463 129.285C411.544 134.883 418.682 137.019 421.413 134.062C424.134 131.106 421.413 124.17 415.321 118.573C409.24 112.975 402.102 110.839 399.37 113.795C396.65 116.752 399.37 123.687 405.463 129.285Z" fill="#EC644E" stroke="#263238" stroke-width="2.81017" stroke-linecap="round" stroke-linejoin="round"/>
<path d="M409.498 124.901C414.388 129.397 420.12 131.117 422.312 128.734C424.504 126.362 422.312 120.787 417.423 116.291C412.533 111.794 406.8 110.075 404.608 112.458C402.416 114.829 404.608 120.405 409.498 124.901Z" fill="#EC644E" stroke="#263238" stroke-width="2.81017" stroke-linecap="round" stroke-linejoin="round"/>
<path d="M403.811 209.532C405.531 212.646 406.498 216.153 406.498 219.862C406.498 232.744 394.863 243.187 380.498 243.187C372.326 243.187 365.031 239.792 360.265 234.498C364.514 242.198 373.349 247.492 383.578 247.492C397.932 247.492 409.578 237.049 409.578 224.168C409.578 218.626 407.419 213.534 403.811 209.532Z" fill="white"/>
<path d="M383.578 247.492C397.937 247.492 409.578 237.049 409.578 224.168C409.578 211.286 397.937 200.843 383.578 200.843C369.219 200.843 357.578 211.286 357.578 224.168C357.578 237.049 369.219 247.492 383.578 247.492Z" stroke="#263238" stroke-width="2.81017" stroke-linecap="round" stroke-linejoin="round"/>
<path d="M375.642 203.991C366.143 202.012 335.805 218.188 332.017 219.469C327.846 220.447 322.676 221.391 318.28 221.391C305.612 221.391 272.61 233.913 277.983 240.725C280.68 244.154 303.094 236.802 303.094 236.802C303.094 236.802 294.776 241.58 296.923 247.503C299.059 253.416 307.849 250.921 307.849 250.921C307.849 250.921 303.229 254.641 304.848 258.441C306.467 262.24 324.126 264.803 328.959 263.454C333.793 262.094 325.182 258.441 325.182 258.441C325.182 258.441 339.323 258.317 344.235 254.945C349.147 251.573 365.39 251.595 365.39 251.595C365.39 251.595 389.187 250.527 394.863 242.76C404.822 229.136 388.254 206.632 375.664 204.013L375.642 203.991Z" fill="#EC644E" stroke="#263238" stroke-width="2.81017" stroke-linecap="round" stroke-linejoin="round"/>
<path d="M290.55 112.21C290.55 112.21 284.345 112.21 277.859 122.046C272.947 129.498 271.441 133.028 271.441 133.028L267.147 132.578C267.147 132.578 263.662 135.501 260.616 145.662" stroke="#9ABAE3" stroke-width="2.81017" stroke-linecap="round" stroke-linejoin="round"/>
<path d="M283.367 143.358C284.638 138.019 294.484 116.56 298.554 112.739C295.328 111.48 291.82 110.783 288.156 110.783C272.295 110.783 259.447 123.631 259.447 139.491C259.447 153.228 269.103 164.704 281.996 167.526C281.074 161.276 281.052 153.183 283.379 143.358H283.367Z" stroke="#263238" stroke-width="2.81017" stroke-linecap="round" stroke-linejoin="round"/>
<path d="M345.067 183.982C344.808 183.06 344.527 182.105 344.224 181.059C342.178 174.124 343.223 173.764 341.515 171.64C338.423 167.829 333.747 172.28 324.957 171.651C316.83 171.066 312.131 168.402 308.905 171.64C306.511 174.057 307.118 177.013 307.882 181.307C307.894 181.397 307.916 181.487 307.927 181.565" stroke="#263238" stroke-width="2.81017" stroke-linecap="round" stroke-linejoin="round"/>
<path d="M221.948 211.286L213.101 215.085C213.101 215.085 208.953 215.659 204.648 217.536C200.332 219.402 199.017 224.64 199.017 224.64C199.017 224.64 180.953 238.174 186.281 243.783C189.698 247.38 197.814 239.781 197.814 239.781C197.814 239.781 195.172 242.187 198.342 245.682C199.95 247.458 203.187 248.088 203.187 248.088C203.187 248.088 202.782 255.754 213.708 252.461C217.451 251.336 239.168 243.198 239.168 243.198L221.936 211.275L221.948 211.286Z" fill="#EC644E" stroke="#263238" stroke-width="2.81017" stroke-linecap="round" stroke-linejoin="round"/>
<path d="M255.018 190.636C245.317 190.659 238.292 203.102 231.772 206.07L213.101 215.096C213.101 215.096 208.953 215.669 204.648 217.547C200.332 219.413 199.017 224.651 199.017 224.651C199.017 224.651 180.953 238.185 186.281 243.794C189.698 247.391 197.814 239.792 197.814 239.792C197.814 239.792 195.172 242.197 198.342 245.693C199.95 247.469 203.187 248.099 203.187 248.099C203.187 248.099 202.782 255.765 213.708 252.471C217.451 251.347 254.22 238.331 254.22 238.331C262.392 234.419 275.51 232.823 280.961 220.705C287.886 205.317 267.866 190.614 255.007 190.648L255.018 190.636Z" fill="#EC644E" stroke="#263238" stroke-width="2.81017" stroke-linecap="round" stroke-linejoin="round"/>
<path d="M197.803 239.781C197.803 239.781 208.47 230.845 212.393 233.104C216.518 235.487 210.561 242.344 210.561 242.344" fill="#EC644E"/>
<path d="M197.803 239.781C197.803 239.781 208.47 230.845 212.393 233.104C216.518 235.487 210.561 242.344 210.561 242.344" stroke="#263238" stroke-width="2.81017" stroke-linecap="round" stroke-linejoin="round"/>
<path d="M203.479 247.75C203.479 247.75 214.136 236.993 218.059 239.264C222.184 241.647 213.472 249.189 213.472 249.189" fill="#EC644E"/>
<path d="M203.479 247.75C203.479 247.75 214.136 236.993 218.059 239.264C222.184 241.647 213.472 249.189 213.472 249.189" stroke="#263238" stroke-width="2.81017" stroke-linecap="round" stroke-linejoin="round"/>
<path d="M199.781 222.639C199.781 222.639 195.757 235.745 198.736 237.544C203.513 240.421 208.864 227.495 208.864 227.495C208.864 227.495 214.855 227.349 217.688 227.528" fill="#EC644E"/>
<path d="M199.781 222.639C199.781 222.639 195.757 235.745 198.736 237.544C203.513 240.421 208.864 227.495 208.864 227.495C208.864 227.495 214.855 227.349 217.688 227.528" stroke="#263238" stroke-width="2.81017" stroke-linecap="round" stroke-linejoin="round"/>
<path d="M317.336 258.249L325.171 258.429" stroke="#263238" stroke-width="2.81017" stroke-linecap="round" stroke-linejoin="round"/>
<path d="M188.102 376.973H86.0367C82.406 376.973 79.4609 374.028 79.4609 370.397C79.4609 366.767 82.406 363.822 86.0367 363.822H188.102C191.733 363.822 194.678 366.767 194.678 370.397C194.678 374.028 191.733 376.973 188.102 376.973Z" stroke="#263238" stroke-width="2.81017" stroke-linecap="round" stroke-linejoin="round"/>
<path d="M95.703 378.131L83.4395 483.254" stroke="#263238" stroke-width="2.81017" stroke-linecap="round" stroke-linejoin="round"/>
<path d="M169.094 378.131L181.357 483.254" stroke="#263238" stroke-width="2.81017" stroke-linecap="round" stroke-linejoin="round"/>
<path d="M109.968 378.131L102.942 483.254" stroke="#263238" stroke-width="2.81017" stroke-linecap="round" stroke-linejoin="round"/>
<path d="M151.963 378.131L158.977 483.254" stroke="#263238" stroke-width="2.81017" stroke-linecap="round" stroke-linejoin="round"/>
<path d="M241.552 412.584L248.6 472.8L211.731 476.397C211.731 476.397 213.709 468.416 204.278 453.489C192.947 435.537 204.244 416.754 204.244 416.754L241.541 412.584H241.552Z" fill="#FCD8C3" stroke="#263238" stroke-width="2.81017" stroke-linecap="round" stroke-linejoin="round"/>
<path d="M127.628 320.051C127.628 320.051 186.079 320.051 200.49 321.118C219.105 322.49 243.137 343.026 243.497 367.43C243.812 388.574 255.592 449.993 255.592 449.993C255.592 449.993 243.497 445.294 227.962 451.409C212.045 457.681 192.7 452.668 192.7 452.668C192.7 452.668 193.262 430.119 190.025 421.756C187.17 414.371 185.843 390.057 186.574 386.82L187.822 374.691L127.628 320.051Z" fill="#EC644E" stroke="#263238" stroke-width="2.81017" stroke-linecap="round" stroke-linejoin="round"/>
<path d="M167.891 422.487L142.262 466.573L109.811 454.556C109.811 454.556 113.97 449.936 114.296 432.289C114.678 411.066 134.439 401.568 134.439 401.568L167.902 422.487H167.891Z" fill="#FCD8C3" stroke="#263238" stroke-width="2.81017" stroke-linecap="round" stroke-linejoin="round"/>
<path d="M109.81 454.557L142.262 466.573L154.661 496.046L101.38 465.336L109.81 454.557Z" fill="#EC644E" stroke="#263238" stroke-width="2.81017" stroke-linecap="round" stroke-linejoin="round"/>
<path d="M187.529 380.626C187.495 380.761 187.462 380.885 187.417 381.009C185.899 385.954 183.921 391.878 181.47 399.297C181.212 400.106 180.953 400.905 180.695 401.703C179.998 403.838 179.357 405.94 178.773 408.02C178.728 408.166 178.683 408.312 178.649 408.458C172.602 429.905 171.736 447.666 171.736 447.666C171.736 447.666 171.68 447.666 171.601 447.666C171.478 447.666 171.32 447.778 171.084 447.947C169.679 448.947 165.722 451.982 152.481 446.306C136.047 439.247 111.745 443.406 108.597 442.259C108.395 442.192 108.271 442.09 108.26 441.944C108.249 441.899 108.282 441.832 108.316 441.753C108.946 440.64 109.485 439.393 109.924 438.055C112.385 430.816 112.576 420.756 114.229 413.876C114.24 413.854 114.251 413.82 114.251 413.798C114.386 413.258 114.521 412.73 114.678 412.235C116.151 407.458 118.489 403.333 121.479 399.365C124.795 394.958 127.043 390.024 129.561 385.111C130.82 382.661 125.357 378.131 123.783 376.254C122.558 374.669 120.951 373.444 119.107 372.657L103.404 365.687C98.6379 363.563 93.0176 360.359 89.6004 356.335C82.6762 348.175 83.4518 334.652 83.4518 324.67C83.4518 323.187 83.4742 322.276 83.4742 322.276C91.0954 317.791 91.0842 323.524 97.1542 318.994C110.238 309.214 141.015 319.96 141.015 319.96C141.015 319.96 150.154 324.333 160.597 330.223C174.018 337.788 189.598 347.849 190.688 354.357C192.07 362.484 191.126 368.767 187.529 380.604V380.626Z" fill="#EC644E" stroke="#263238" stroke-width="2.81017" stroke-linecap="round" stroke-linejoin="round"/>
<path d="M204.334 255.371C208.471 255.304 218.115 251.032 218.115 251.032C218.711 250.706 219.25 250.448 219.756 250.212C217.261 250.246 215.552 250.549 212.371 252.291C212.371 252.291 208.302 254.09 204.312 255.371H204.334Z" fill="white"/>
<path d="M80.5063 311.833C78.9102 311.485 77.4938 311.08 76.2124 310.653C75.819 314.407 75.2232 323.411 79.2361 329.436C79.8319 328.93 80.4726 328.436 81.1021 327.941C79.3261 320.905 81.7653 312.114 80.5063 311.833Z" fill="white"/>
<path d="M228.153 252.786C228.153 252.786 204.278 256.316 199.029 256.597C198.86 256.597 198.703 256.619 198.579 256.619L187.248 256.81C187.248 256.81 194.195 321.512 191.475 321.489C188.282 321.467 181.403 321.455 173.197 321.455C154.482 321.455 128.853 321.489 124.019 321.489C123.649 321.489 123.278 321.489 122.918 321.489C104.663 321.354 93.0177 317.791 79.2366 329.448C73.1554 320.331 78.0676 313.553 76.2578 312.744L68.2095 308.574C66.6583 307.899 65.3769 306.933 64.309 305.741C62.3306 303.538 61.1054 300.582 60.4085 297.277C57.8007 285.137 62.2182 268.298 62.488 267.32C62.4993 267.287 62.4993 267.275 62.4993 267.275L62.5667 266.691C62.5667 266.691 67.4789 229.945 76.9098 215.872C77.0559 215.647 77.2021 215.433 77.3594 215.22C82.4852 208.082 89.904 202.001 98.6156 200.506C100.414 200.202 107.395 198.572 108.417 198.325C109.44 198.078 109.407 198.291 110.486 198.022C111.025 197.887 103.179 196.279 102.617 191.693C101.358 181.397 118.287 178.676 119.658 178.474C138.599 175.787 148.682 178.811 148.682 178.811C148.254 183.521 148.861 188.647 149.142 188.636C149.39 188.636 149.637 188.613 149.884 188.613C150.053 188.613 150.233 188.613 150.39 188.613C150.57 188.613 150.75 188.613 150.93 188.636C150.963 188.636 150.997 188.636 151.031 188.636C151.334 188.636 151.627 188.681 151.919 188.714C152.166 188.748 152.413 188.782 152.649 188.827C152.919 188.872 153.189 188.928 153.459 188.984C153.695 189.04 153.931 189.096 154.156 189.164C154.336 189.209 154.504 189.254 154.673 189.31C155.392 189.524 156.033 189.771 156.584 190.007L156.707 190.052C157.966 190.614 158.697 191.12 158.697 191.12C158.697 191.12 159.349 191.288 160.462 191.569H160.484C165.88 192.986 181.842 197.111 184.899 197.786C188.114 198.482 192.723 200.101 197.556 203.012C204.536 207.205 213.765 217.119 214.529 225.741C214.799 228.742 218.711 234.835 221.589 240.028C223.792 243.996 225.995 248.391 227.209 250.842C227.805 252.044 228.153 252.775 228.153 252.775V252.786Z" fill="#9ABAE3"/>
<path d="M203.883 207.913C201.759 205.924 199.567 204.238 197.555 203.035C197.274 202.866 197.004 202.72 196.734 202.563C198.825 204.597 201.5 206.238 203.883 207.913Z" fill="white"/>
<path d="M183.954 197.583C179.413 196.504 165.463 192.896 160.484 191.603H160.461C159.348 191.311 158.696 191.142 158.696 191.142C158.696 191.142 157.966 190.636 156.707 190.074L156.583 190.029C156.032 189.793 155.392 189.546 154.672 189.332C154.504 189.276 154.335 189.231 154.155 189.186C153.93 189.119 153.694 189.063 153.458 189.007C153.188 188.95 152.919 188.894 152.649 188.849C152.413 188.804 152.166 188.77 151.918 188.737C151.626 188.703 151.334 188.669 151.03 188.658C150.997 188.658 150.963 188.658 150.929 188.658C150.749 188.658 150.569 188.636 150.39 188.636C150.232 188.636 150.052 188.636 149.884 188.636C149.636 188.636 149.389 188.636 149.142 188.658C148.861 188.658 148.254 183.544 148.681 178.834C148.681 178.834 138.598 175.81 119.658 178.496C118.286 178.699 101.358 181.419 102.617 191.716C102.673 192.165 102.819 192.581 102.999 192.986C106.787 187.073 117.724 185.32 118.826 185.151C137.766 182.464 147.849 185.488 147.849 185.488C147.422 190.198 148.029 195.324 148.31 195.313C148.557 195.313 148.805 195.29 149.052 195.29C149.22 195.29 149.4 195.29 149.558 195.29C149.738 195.29 149.917 195.29 150.097 195.313C150.131 195.313 150.165 195.313 150.198 195.313C150.502 195.313 150.794 195.357 151.086 195.391C151.334 195.425 151.581 195.459 151.817 195.504C152.087 195.549 152.357 195.605 152.626 195.661C152.862 195.717 153.099 195.773 153.323 195.841C153.503 195.886 153.672 195.931 153.84 195.987C154.56 196.201 155.201 196.448 155.751 196.684L155.875 196.729C157.134 197.291 157.865 197.797 157.865 197.797C157.865 197.797 158.517 197.965 159.629 198.246H159.652C163.575 199.281 173.073 201.742 179.143 203.26C179.627 200.776 181.537 198.707 183.954 197.583Z" fill="white"/>
<path d="M186.405 263.465C186.405 263.465 190.868 304.976 191.239 321.489C191.317 321.489 191.396 321.489 191.475 321.489C193.656 321.511 189.62 279.932 187.934 263.442L186.405 263.465Z" fill="white"/>
<path d="M228.153 252.786C228.153 252.786 204.278 256.316 199.029 256.597C198.86 256.597 198.703 256.619 198.579 256.619L187.248 256.81C187.248 256.81 194.195 321.512 191.475 321.489C188.282 321.467 181.403 321.455 173.197 321.455C154.482 321.455 128.853 321.489 124.019 321.489C123.649 321.489 123.278 321.489 122.918 321.489C104.663 321.354 93.0177 317.791 79.2366 329.448C73.1554 320.331 78.0676 313.553 76.2578 312.744L68.2095 308.574C66.6583 307.899 65.3769 306.933 64.309 305.741C62.3306 303.538 61.1054 300.582 60.4085 297.277C57.8007 285.137 62.2182 268.298 62.488 267.32C62.4993 267.287 62.4993 267.275 62.4993 267.275L62.5667 266.691C62.5667 266.691 67.4789 229.945 76.9098 215.872C77.0559 215.647 77.2021 215.433 77.3594 215.22C82.4852 208.082 89.904 202.001 98.6156 200.506C100.414 200.202 107.395 198.572 108.417 198.325C109.44 198.078 109.407 198.291 110.486 198.022C111.025 197.887 103.179 196.279 102.617 191.693C101.358 181.397 118.287 178.676 119.658 178.474C138.599 175.787 148.682 178.811 148.682 178.811C148.254 183.521 148.861 188.647 149.142 188.636C149.39 188.636 149.637 188.613 149.884 188.613C150.053 188.613 150.233 188.613 150.39 188.613C150.57 188.613 150.75 188.613 150.93 188.636C150.963 188.636 150.997 188.636 151.031 188.636C151.334 188.636 151.627 188.681 151.919 188.714C152.166 188.748 152.413 188.782 152.649 188.827C152.919 188.872 153.189 188.928 153.459 188.984C153.695 189.04 153.931 189.096 154.156 189.164C154.336 189.209 154.504 189.254 154.673 189.31C155.392 189.524 156.033 189.771 156.584 190.007L156.707 190.052C157.966 190.614 158.697 191.12 158.697 191.12C158.697 191.12 159.349 191.288 160.462 191.569H160.484C165.88 192.986 181.842 197.111 184.899 197.786C188.114 198.482 192.723 200.101 197.556 203.012C204.536 207.205 213.765 217.119 214.529 225.741C214.799 228.742 218.711 234.835 221.589 240.028C223.792 243.996 225.995 248.391 227.209 250.842C227.805 252.044 228.153 252.775 228.153 252.775V252.786Z" stroke="#263238" stroke-width="2.81017" stroke-linecap="round" stroke-linejoin="round"/>
<path d="M181.932 258.148C180.167 272.188 175.502 305.201 173.198 321.455C154.482 321.455 128.853 321.489 124.02 321.489C123.649 321.489 123.278 321.489 122.918 321.489C122.828 316.217 123.39 309.552 125.706 302.74C130.854 287.531 140.341 249.391 137.374 229.169C134.395 208.959 125.706 195.414 125.706 195.414L143.871 191.907L154.673 189.333L156.584 190.029L156.708 190.074L160.462 191.592H160.485L181.167 199.966C181.167 199.966 184.315 239.174 181.932 258.159V258.148Z" fill="white" stroke="#263238" stroke-width="2.81017" stroke-linecap="round" stroke-linejoin="round"/>
<path d="M191.666 269.456C188.552 259.969 187.248 256.822 187.248 256.822L191.666 269.456Z" fill="#FCD8C3" stroke="#263238" stroke-width="2.81017" stroke-linecap="round" stroke-linejoin="round"/>
<path d="M211.742 476.397L248.612 472.8L275.589 486.862L211.742 489.448V476.397Z" fill="#EC644E" stroke="#263238" stroke-width="2.81017" stroke-linecap="round" stroke-linejoin="round"/>
<path d="M189.452 238.938C188.204 243.367 186.889 258.519 187.249 256.822" stroke="#263238" stroke-width="2.81017" stroke-linecap="round" stroke-linejoin="round"/>
<path d="M181.166 286.261C181.166 286.261 181.166 286.294 181.166 286.306C181.233 286.306 181.29 286.294 181.357 286.283C181.245 286.272 181.166 286.261 181.166 286.261Z" fill="white"/>
<path d="M172.882 288.745C172.107 288.025 171.623 287.396 171.623 287.396C171.623 287.396 171.623 288.059 171.545 289.172C171.511 289.577 171.466 290.06 171.421 290.577C171.488 290.555 171.556 290.555 171.634 290.532C172.534 290.24 173.141 289.801 173.579 289.307C173.332 289.116 173.096 288.925 172.893 288.745H172.882Z" fill="white"/>
<path d="M163.373 299.728C163.373 299.728 170.016 297.839 171.421 294.917C173.254 291.128 166.307 288.745 166.307 288.745" fill="#FCD8C3"/>
<path d="M163.373 299.728C163.373 299.728 170.016 297.839 171.421 294.917C173.254 291.128 166.307 288.745 166.307 288.745" stroke="#263238" stroke-width="2.81017" stroke-linecap="round" stroke-linejoin="round"/>
<path d="M188.193 281.124C187.552 274.29 174.434 266.511 170.658 266.77C167.061 267.039 164.475 269.985 164.475 269.985C164.475 269.985 162.868 268.388 158.821 269.67C155.64 270.681 154.696 271.794 154.426 272.345C154.066 272.176 153.268 271.929 151.65 271.581C147.108 270.592 142.376 275.92 142.376 275.92L133.035 275.448C126.65 283.597 117.129 297.322 122.918 313.205C127.381 313.115 136.497 312.575 139.734 312.587C139.734 312.587 139.734 312.564 139.734 312.553C146.187 312.328 152.605 311.249 156.764 308.326C163.295 303.74 164.689 293.331 164.992 289.161C165.071 288.048 165.071 287.385 165.071 287.385C165.071 287.385 165.554 288.015 166.33 288.745C167.578 289.869 169.578 291.207 171.658 290.521C174.255 289.678 174.592 287.576 174.614 286.677C174.625 286.407 174.614 286.25 174.614 286.25C174.614 286.25 175.232 286.328 176.199 286.385C178.47 286.508 182.685 286.542 185.484 285.294C185.484 285.294 185.488 285.294 185.495 285.294C187.226 284.507 188.407 283.215 188.215 281.135L188.193 281.124Z" fill="#FCD8C3" stroke="#263238" stroke-width="2.81017" stroke-linecap="round" stroke-linejoin="round"/>
<path d="M174.58 286.261C174.58 286.261 174.715 278.966 164.475 269.984" stroke="#263238" stroke-width="2.81017" stroke-linecap="round" stroke-linejoin="round"/>
<path d="M165.049 287.385C165.049 287.385 163.172 279.798 154.303 272.705" stroke="#263238" stroke-width="2.81017" stroke-linecap="round" stroke-linejoin="round"/>
<path d="M163.621 283.855L165.015 288.296C166.105 291.746 160.002 296.591 151.166 286.25L149.615 287.385" stroke="#263238" stroke-width="2.81017" stroke-linecap="round" stroke-linejoin="round"/>
<path d="M160.776 292.758C153.784 284.575 161.068 280.045 160.776 280.045" stroke="#263238" stroke-width="2.81017" stroke-linecap="round" stroke-linejoin="round"/>
<path d="M135.159 275.493L99.1104 274.874" stroke="#263238" stroke-width="2.81017" stroke-linecap="round" stroke-linejoin="round"/>
<path d="M105.236 274.986L114.308 236.498" stroke="#263238" stroke-width="2.81017" stroke-linecap="round" stroke-linejoin="round"/>
<path d="M170.6 306.922H253.387L271.204 255.124C272.463 251.449 269.742 247.627 265.853 247.627H195.037C192.62 247.627 190.473 249.156 189.686 251.449L170.611 306.933L170.6 306.922Z" fill="white" stroke="#263238" stroke-width="2.81017" stroke-linecap="round" stroke-linejoin="round"/>
<path d="M221.588 279.472C221.588 281.416 223.173 283.013 225.117 283.013C227.062 283.013 228.658 281.428 228.658 279.472C228.658 277.516 227.073 275.931 225.117 275.931C223.162 275.931 221.588 277.516 221.588 279.472Z" fill="#263238"/>
<path d="M158.415 312.857H251.229C252.904 312.857 254.264 311.497 254.264 309.822C254.264 308.147 252.904 306.787 251.229 306.787H158.415C156.74 306.787 155.38 308.147 155.38 309.822C155.38 311.497 156.74 312.857 158.415 312.857Z" fill="white" stroke="#263238" stroke-width="2.81017" stroke-linecap="round" stroke-linejoin="round"/>
<path d="M125.694 195.414C118.365 192.424 112.542 187.646 124.615 186.23" stroke="#263238" stroke-width="2.81017" stroke-linecap="round" stroke-linejoin="round"/>
<path d="M135.855 376.973C130.954 382.29 129.898 383.954 129.931 383.774" stroke="#263238" stroke-width="2.81017" stroke-linecap="round" stroke-linejoin="round"/>
<path d="M88.9482 338.069C93.8155 338.069 104.236 331.1 102.819 325.188" stroke="#263238" stroke-width="2.81017" stroke-linecap="round" stroke-linejoin="round"/>
<path d="M190.035 372.533C190.035 372.533 195.049 362.315 201.231 362.315" stroke="#263238" stroke-width="2.81017" stroke-linecap="round" stroke-linejoin="round"/>
<path d="M190.316 371.982C190.316 371.982 193.127 357.088 196.96 357.088" stroke="#263238" stroke-width="2.81017" stroke-linecap="round" stroke-linejoin="round"/>
<path d="M168.532 148.226C169.847 149.046 169.297 151.171 167.757 151.249C163.98 151.44 157.876 152.081 154.841 154.239C150.244 157.499 147.827 155.307 149.176 152.632C150.525 149.957 159.54 146.236 164.812 146.955C166.43 147.18 167.633 147.663 168.532 148.214V148.226Z" fill="#263238" stroke="#263238" stroke-width="2.81017" stroke-linecap="round" stroke-linejoin="round"/>
<path d="M146.4 162.052C145.467 162.389 144.478 161.928 144.197 161.017C143.916 160.107 144.444 159.084 145.377 158.747C146.31 158.41 147.299 158.871 147.58 159.781C147.861 160.692 147.333 161.714 146.4 162.052Z" fill="#263238" stroke="#263238" stroke-width="2.81017" stroke-linecap="round" stroke-linejoin="round"/>
<path d="M169.454 202.574C168.993 206.452 165.115 207.947 160.338 206.418C159.764 206.227 159.169 205.991 158.562 205.722C158.382 205.632 158.202 205.553 158.011 205.463C157.595 205.249 157.156 205.013 156.763 204.777C151.637 201.697 148.007 196.246 148.501 192.087C148.793 189.602 150.479 188.096 152.896 187.725C153.009 187.703 153.132 187.691 153.256 187.691C153.425 187.669 153.604 187.658 153.784 187.658C155.583 187.579 157.707 188.074 159.933 189.198C165.711 192.109 169.982 198.089 169.454 202.585V202.574Z" fill="#263238" stroke="#263238" stroke-width="2.81017" stroke-linecap="round" stroke-linejoin="round"/>
<path d="M149.581 175.495C149.322 176.226 149.075 177.013 148.884 177.789C148.805 178.126 148.749 178.474 148.67 178.811C148.457 179.935 148.311 181.026 148.255 182.105C147.861 191.086 152.987 198.966 161.024 200.663C170.331 202.664 179.953 195.627 182.55 184.983C183.55 180.891 183.359 176.856 182.213 173.326C182.145 173.124 182.078 172.921 181.999 172.73C181.954 172.584 181.898 172.427 181.83 172.292C181.752 172.045 181.662 171.808 181.561 171.572C180.785 169.774 179.728 168.133 178.447 166.739C178.267 166.537 178.076 166.334 177.885 166.154C177.694 165.975 177.492 165.783 177.3 165.604C177.087 165.424 176.885 165.255 176.671 165.075C175.266 163.94 173.658 163.063 171.894 162.501C171.41 162.333 170.905 162.198 170.387 162.097C161.8 160.253 152.886 166.154 149.558 175.484L149.581 175.495Z" fill="#FCD8C3"/>
<path d="M182.235 173.337C182.167 173.135 182.1 172.932 182.021 172.741C181.976 172.595 181.92 172.438 181.853 172.303C181.774 172.056 181.684 171.82 181.583 171.584C180.807 169.785 179.751 168.144 178.469 166.75C178.289 166.548 178.098 166.345 177.907 166.166C177.716 165.986 177.514 165.795 177.323 165.615C177.109 165.435 176.907 165.266 176.693 165.086C175.288 163.951 173.681 163.074 171.916 162.512C171.432 162.344 170.915 162.209 170.41 162.108C170.365 162.108 170.331 162.096 170.286 162.085C170.376 162.164 170.477 162.243 170.567 162.321C170.758 162.501 170.96 162.692 171.151 162.872C171.343 163.052 171.534 163.254 171.713 163.457C172.995 164.85 174.052 166.492 174.827 168.29C174.928 168.515 175.018 168.762 175.097 169.009C175.164 169.156 175.209 169.302 175.266 169.448C175.344 169.639 175.412 169.841 175.479 170.044C176.614 173.573 176.817 177.597 175.816 181.7C173.231 192.289 163.676 199.303 154.414 197.403C156.28 199 158.517 200.146 161.046 200.674C170.353 202.675 179.975 195.639 182.572 184.994C183.572 180.902 183.381 176.867 182.235 173.337Z" fill="white"/>
<path d="M161.046 200.663C153.436 199.056 148.434 191.895 148.254 183.521C148.254 183.049 148.254 182.588 148.265 182.116C148.321 181.026 148.479 179.935 148.681 178.811C148.749 178.463 148.805 178.137 148.883 177.788C149.074 177.013 149.311 176.226 149.58 175.495C152.098 168.369 157.887 163.254 164.306 162.04C164.632 161.984 164.946 161.928 165.272 161.883C165.767 161.826 166.261 161.782 166.767 161.77C167.239 161.759 167.712 161.77 168.195 161.793C168.431 161.804 168.689 161.826 168.937 161.86C169.184 161.883 169.431 161.928 169.679 161.961C169.926 161.995 170.173 162.051 170.409 162.096C170.926 162.197 171.432 162.332 171.916 162.501C173.68 163.074 175.299 163.951 176.693 165.086C176.906 165.266 177.12 165.435 177.322 165.615C177.525 165.794 177.727 165.986 177.907 166.165C178.109 166.345 178.289 166.548 178.458 166.761C179.75 168.144 180.807 169.785 181.571 171.583C181.672 171.819 181.774 172.056 181.852 172.303C181.92 172.449 181.976 172.595 182.01 172.741C182.088 172.944 182.156 173.135 182.223 173.337C183.37 176.867 183.561 180.879 182.56 184.982C179.964 195.627 170.342 202.664 161.035 200.663H161.046Z" stroke="#263238" stroke-width="2.81017" stroke-linecap="round" stroke-linejoin="round"/>
<path d="M215.743 224.055L210.032 213.848C210.032 213.848 206.424 204.463 201.849 202.855C197.274 201.248 194.734 197.505 192.328 197.28C189.923 197.044 186.315 197.077 186.315 197.077C186.922 197.201 187 197.235 186.315 197.077C183.673 196.549 171.117 194.335 167.97 198.157C163.777 203.249 177.637 205.508 177.637 205.508C177.637 205.508 174.703 206.216 172.41 209.926C170.117 213.624 172.477 217.873 177.142 224.853C181.807 231.834 189.979 237.521 189.979 237.521L191.957 240.421C197.6 238.668 207.312 234.351 215.731 224.055H215.743Z" fill="#FCD8C3"/>
<path d="M183.774 201.158C184.381 201.281 184.46 201.315 183.774 201.158V201.158Z" fill="white"/>
<path d="M183.775 201.158C183.775 201.158 187.383 201.135 189.788 201.36C192.194 201.596 194.734 205.328 199.309 206.935C203.884 208.543 207.492 217.929 207.492 217.929L212.787 227.405C213.787 226.371 214.788 225.258 215.765 224.066L210.055 213.86C210.055 213.86 206.447 204.474 201.872 202.866C197.297 201.259 194.757 197.516 192.351 197.291C189.946 197.055 186.337 197.089 186.337 197.089C186.944 197.212 187.023 197.246 186.337 197.089C183.696 196.56 171.14 194.346 167.993 198.168C167.138 199.202 167.037 200.112 167.408 200.922C172.107 199.056 181.515 200.719 183.763 201.158H183.775Z" fill="white"/>
<path d="M171.713 211.69C173.478 209.982 175.097 209.588 175.097 209.588C175.097 209.588 174.22 209.442 172.961 209.15C172.781 209.397 172.601 209.656 172.433 209.926C172.073 210.499 171.848 211.083 171.702 211.69H171.713Z" fill="white"/>
<path d="M186.315 197.077C186.315 197.077 189.923 197.044 192.328 197.28C194.734 197.505 197.274 201.248 201.849 202.855C206.424 204.463 210.032 213.848 210.032 213.848L215.743 224.055H215.731C207.312 234.351 197.6 238.668 191.957 240.421L189.979 237.521C189.979 237.521 181.807 231.834 177.142 224.853C172.477 217.873 170.117 213.624 172.41 209.926C174.703 206.216 177.637 205.508 177.637 205.508C177.637 205.508 163.777 203.249 167.97 198.157C171.117 194.335 183.673 196.549 186.315 197.077ZM186.315 197.077C186.922 197.201 187 197.235 186.315 197.077Z" stroke="#263238" stroke-width="2.81017" stroke-linecap="round" stroke-linejoin="round"/>
<path d="M189.721 197.134C189.721 197.134 185.966 199.371 180.74 203.777C175.513 208.183 180.458 211.927 185.607 210.274C192.475 208.071 193.262 206.587 193.262 206.587" stroke="#263238" stroke-width="2.81017" stroke-linecap="round" stroke-linejoin="round"/>
<path d="M195.769 204.226C195.769 204.226 192.014 206.463 186.787 210.87C181.56 215.287 186.506 219.019 191.655 217.367C198.523 215.164 199.309 213.68 199.309 213.68" fill="#FCD8C3"/>
<path d="M195.769 204.226C195.769 204.226 192.014 206.463 186.787 210.87C181.56 215.287 186.506 219.019 191.655 217.367C198.523 215.164 199.309 213.68 199.309 213.68" stroke="#263238" stroke-width="2.81017" stroke-linecap="round" stroke-linejoin="round"/>
<path d="M183.482 211.005L180.751 217.783" stroke="#263238" stroke-width="2.81017" stroke-linecap="round" stroke-linejoin="round"/>
<path d="M196.937 229.17C189.721 229.17 189.721 217.783 189.721 217.783" stroke="#263238" stroke-width="2.81017" stroke-linecap="round" stroke-linejoin="round"/>
<path d="M184.561 200.731C187.562 203.709 185.224 208.543 183.212 210.42" stroke="#263238" stroke-width="2.81017" stroke-linecap="round" stroke-linejoin="round"/>
<path d="M171.713 213.354C168.577 215.4 161.563 214.545 156.695 211.859" stroke="#263238" stroke-width="2.81017" stroke-linecap="round" stroke-linejoin="round"/>
<path d="M185.528 172.157C187.551 170.415 187.776 167.357 186.033 165.334C184.291 163.31 181.234 163.086 179.21 164.828C178.716 165.255 178.334 165.761 178.053 166.312C178.008 166.267 177.963 166.211 177.906 166.166C177.715 165.986 177.513 165.806 177.322 165.615C177.12 165.446 176.906 165.266 176.692 165.086C175.287 163.962 173.691 163.074 171.915 162.501C171.432 162.333 170.926 162.209 170.409 162.096C170.173 162.052 169.926 161.995 169.678 161.962C169.431 161.928 169.195 161.883 168.936 161.86C168.689 161.827 168.442 161.804 168.194 161.793C167.711 161.759 167.239 161.748 166.767 161.77C166.261 161.782 165.766 161.838 165.272 161.883C165.047 161.917 164.845 161.962 164.62 161.995C164.507 162.018 164.418 162.029 164.305 162.029C157.887 163.243 152.098 168.358 149.58 175.484C149.31 176.215 149.074 177.002 148.883 177.777C148.804 178.114 148.748 178.452 148.681 178.8C148.467 179.913 148.31 181.003 148.265 182.105C148.242 182.577 148.242 183.038 148.253 183.51C153.514 179.542 158.539 177.181 161.293 178.013C171.083 180.992 181.234 176.069 181.998 173.315C183.234 173.416 184.516 173.034 185.528 172.157Z" fill="#263238" stroke="#263238" stroke-width="2.81017" stroke-linecap="round" stroke-linejoin="round"/>
<path d="M334.085 313.205H38.0615V321.489H334.085V313.205Z" fill="white" stroke="#263238" stroke-width="2.81017" stroke-linecap="round" stroke-linejoin="round"/>
<path d="M309.232 321.5H300.947V492.82H309.232V321.5Z" fill="white" stroke="#263238" stroke-width="2.81017" stroke-linecap="round" stroke-linejoin="round"/>
<path d="M67.0285 321.5H58.7441V492.82H67.0285V321.5Z" fill="white" stroke="#263238" stroke-width="2.81017" stroke-linecap="round" stroke-linejoin="round"/>
<path d="M133.607 272.705C132.854 267.242 130.527 252.617 128.74 235.161C125.716 205.699 110.474 198.01 110.474 198.01" stroke="#263238" stroke-width="2.81017" stroke-linecap="round" stroke-linejoin="round"/>
<path d="M186.338 197.078C186.945 197.201 187.024 197.235 186.338 197.078V197.078Z" fill="#FCD8C3" stroke="#263238" stroke-width="2.81017" stroke-linecap="round" stroke-linejoin="round"/>
<path d="M234.728 247.144L215.743 224.055C207.324 234.352 197.612 238.668 191.969 240.422L196.375 246.896L234.717 247.144H234.728Z" fill="#9ABAE3"/>
<path d="M229.941 247.11L234.729 247.144L215.744 224.055C214.935 225.044 214.103 225.966 213.282 226.854L229.941 247.11Z" fill="white"/>
<path d="M202.85 235.431C198.657 238.028 194.802 239.556 191.98 240.422L192.509 241.197C195.533 239.972 199.118 238.14 202.85 235.431Z" fill="white"/>
<path d="M234.728 247.144L215.743 224.055C207.324 234.352 197.612 238.668 191.969 240.422L196.375 246.896L234.717 247.144H234.728Z" stroke="#263238" stroke-width="2.81017" stroke-linecap="round" stroke-linejoin="round"/>
<path d="M117.139 244.344C116.599 247.312 110.484 254.292 110.484 254.292" stroke="#263238" stroke-width="2.81017" stroke-linecap="round" stroke-linejoin="round"/>
</g>
<defs>
<clipPath id="clip0_4326_10634">
<rect width="508" height="496.872" fill="white" transform="translate(0 0.579102)"/>
</clipPath>
</defs>
</svg>
