<svg width="24" height="25" viewBox="0 0 24 25" fill="none" xmlns="http://www.w3.org/2000/svg">
<path d="M20.7 17.4906C20.1469 16.5344 19.4812 14.7156 19.4812 11.5V10.8344C19.4812 6.68125 16.1531 3.27813 12.0562 3.25H12C11.0163 3.25123 10.0425 3.4462 9.13416 3.82378C8.22583 4.20135 7.40076 4.75414 6.70606 5.45058C6.01136 6.14702 5.46064 6.97347 5.08534 7.88275C4.71004 8.79202 4.51751 9.76632 4.51874 10.75V11.5C4.51874 14.7156 3.85311 16.5344 3.29999 17.4906C3.16622 17.7185 3.09501 17.9777 3.09359 18.2419C3.09216 18.5061 3.16056 18.7661 3.29187 18.9954C3.42317 19.2247 3.61272 19.4152 3.84133 19.5477C4.06994 19.6803 4.3295 19.75 4.59374 19.75H8.24999C8.24999 20.7446 8.64508 21.6984 9.34834 22.4016C10.0516 23.1049 11.0054 23.5 12 23.5C12.9945 23.5 13.9484 23.1049 14.6516 22.4016C15.3549 21.6984 15.75 20.7446 15.75 19.75H19.4062C19.6704 19.7517 19.9303 19.6831 20.1593 19.5513C20.3883 19.4196 20.5781 19.2293 20.7094 19C20.8395 18.7694 20.9071 18.5088 20.9055 18.2441C20.9038 17.9793 20.833 17.7196 20.7 17.4906ZM12 22C11.404 21.9975 10.8331 21.7597 10.4117 21.3383C9.9903 20.9168 9.75246 20.346 9.74999 19.75H14.25C14.2475 20.346 14.0097 20.9168 13.5883 21.3383C13.1668 21.7597 12.596 21.9975 12 22Z" fill="url(#paint0_linear_1_240)"/>
<circle cx="17" cy="4" r="4" fill="#79EA09"/>
<defs>
<linearGradient id="paint0_linear_1_240" x1="4.28674" y1="18.4375" x2="20.6374" y2="10.134" gradientUnits="userSpaceOnUse">
<stop stop-color="#B33DEB"/>
<stop offset="1" stop-color="#DE8FFF"/>
</linearGradient>
</defs>
</svg>
